<svg xmlns="http://www.w3.org/2000/svg" viewBox="0 0 1086.43 307.55"><defs><style>.cls-1{fill:#fff;fill-rule:evenodd;}</style></defs><title>bridge</title><g id="Layer_5" data-name="Layer 5"><path class="cls-1" d="M820.93,251.89l.57-1.26a263.84,263.84,0,0,1,31-52.06,103.84,103.84,0,0,1,19.83-20.14q-2.45-2.09-5-4a97.89,97.89,0,0,0-10.89-7.33c-2.48,2.09-4.87,4.3-7.17,6.6l-3.46-23.78c10.42,3,20.11,8.78,28.61,15.32,13.87,10.68,25.85,24.27,36,38.43a428.13,428.13,0,0,1,25.76,40.8q2.14,3.82,4.22,7.68-59.57-.37-119.49-.21Zm134.43-11.64V214.94l-13.74,1.65q5.69,9.21,11,18.66c.93,1.67,1.86,3.33,2.77,5Zm0-36.26v-14q-3.34-2.92-6.83-5.61-2.56-2-5.26-3.83l-1.85,25.16L955.36,204Zm0-38c-12.52-8.82-26.72-15.55-42-17.46a69.45,69.45,0,0,0-11.89-.46,204.82,204.82,0,0,1,21.23,21.82,74.48,74.48,0,0,1,10.16,4.35l-1.9,25.91q-2.57-3.76-5.23-7.46c-11.24-15.62-24.49-30.6-39.77-42.37-13.63-10.49-29.47-18.77-46.72-20.93-18.73-2.34-35.81,3-51,13.92a120.59,120.59,0,0,0-24.76,24.6,282.39,282.39,0,0,0-33.2,55.86q-2.9,6.39-5.53,12.89-7-11.34-14.44-22.37L721.44,163q8.81,10,17.19,20.35,7-11.29,15.11-21.9a663.73,663.73,0,0,0-97-94.89q-3.6-2.87-7.32-5.61C613.56,34.7,573,22.55,529.86,32a184.59,184.59,0,0,1,44,23.58,115.16,115.16,0,0,1,17.81,4l.95,24.25Q585,77.33,577.09,71q-3.6-2.87-7.32-5.61c-37.93-27.76-81.06-39.75-127-27.12C400.38,50,364.6,80.49,337.6,114.27q-4.35,5.45-8.48,11.07c-16.31,22.29-29.74,46.65-41.5,71.6-6.13,13-11.82,26.22-17.27,39.52l-4.15,10.14L261,237q-2.87-5.31-6-10.5-2.27-3.81-4.67-7.54l26.12-29.51q1.15,1,2.26,2,5.64-11.92,11.82-23.59A94.5,94.5,0,0,0,277,158.57c-14.83-8.34-30.76-11.33-47.38-7.33A73,73,0,0,0,210.43,159a124.58,124.58,0,0,1,18.46,15.89q1.18,1.23,2.35,2.47a42.41,42.41,0,0,1,4.28-1.28q1.39-.33,2.78-.55l.32,26.61a228.26,228.26,0,0,0-17.19-20A106.21,106.21,0,0,0,197.35,163c-14.83-8.34-30.76-11.32-47.38-7.33-15.06,3.61-28.24,12.42-39.26,23.05-12,11.54-21.95,25.72-30.09,40.18a380.7,380.7,0,0,0-18.69,38.52c-4.79,11.37-9.18,22.88-13.33,34.49l.41.14q-13.41,1.53-26.84,3.14l.54,9.59q24.4-2.57,48.84-4.81l1.2.42.19-.55c247-22.52,496.49-19.71,735.47-8.08l.1.19.36-.18c102.16,5,202.41,11.56,299.72,18.46V254q-18.47-.29-37-.54V38.22h-8.16a16.51,16.51,0,0,0-5.16-23,9.3,9.3,0,1,0-17.44,0,16.52,16.52,0,0,0-5.16,23H1027V252.88h-1.11a442.18,442.18,0,0,0-26-41q-1.74-2.43-3.56-4.83V35.26h-7.74a15.14,15.14,0,0,0-4.72-21,8.52,8.52,0,1,0-16,0,15.14,15.14,0,0,0-4.73,21h-7.74V166ZM996.28,240q4,6.23,7.75,12.58l-7.75-.08V240ZM835.91,189.23,799.2,170.58l19.74,44.16a268.32,268.32,0,0,1,17-25.51Zm-23.56,37.34q-2.66,5.06-5.14,10.23Q794.64,216,780.48,196.18A248.65,248.65,0,0,0,766,220q10.81,15.7,20.61,32.06-23.9.15-47.86.41,4-10.63,8.63-21a263.2,263.2,0,0,1,31-52.06,126.26,126.26,0,0,1,8.49-10l25.53,57.13Zm-13.06-68.12L839,178.64l-4.5-30.84c-12.81-1-24.76,3.17-35.22,10.66ZM153.77,181.08c.69-.2,1.38-.39,2.07-.56,10.15-2.44,20-.31,29,4.74a81.18,81.18,0,0,1,18.2,14.6,216,216,0,0,1,30,39.65A297.11,297.11,0,0,1,250,272.83q-45.92,3.58-92.1,7.91c2.47-6.79,3.38-8.81,7.19-17.84a353.56,353.56,0,0,1,17.43-36,175.21,175.21,0,0,1,13-20,70.84,70.84,0,0,0-15.75-12.69,38.83,38.83,0,0,0-4.9-2.34c-3.38,4.5-6.55,9.17-9.51,13.92l-11.6-24.82Zm.35,44.92q-5.39,10.53-10.11,21.4l-28.5-25.87L154.12,226Zm-18.63,42.11q-3,7.65-5.77,15.36-26.36,2.61-52.82,5.5,2.21-5.95,4.54-11.85l54-9Zm-49.18-2.81a350.24,350.24,0,0,1,16.56-33.9q1.23-2.2,2.54-4.39l32.68,29.65-51.78,8.63Zm30.11-54.6a123.39,123.39,0,0,1,12.07-13.61,76.7,76.7,0,0,1,15.33-11.73l14.09,30.14-41.49-4.8ZM437.76,66.91c3.89-1.49,7.84-2.8,11.86-3.91,37.93-10.43,73.86.17,105.06,23q3.3,2.41,6.48,5a644.34,644.34,0,0,1,78.61,74.27l-.15,1.12.94-.22q10,11.21,19.38,22.93a600.31,600.31,0,0,1,44.78,63.85C592.37,254.53,479,258.2,364.39,265c8.1-20.81,16.58-41.49,26.1-61.68,11-23.41,23.59-46.42,38.9-67.32q3.81-5.2,7.82-10.25c16.77-21,37.52-41,61.46-54.41A98.91,98.91,0,0,0,452.42,73q-6,5.21-11.71,10.79l-3-16.88ZM417,110.15q-4.22,5.29-8.21,10.75-2.39,3.27-4.7,6.6l-11.45-24.6L417,110.15Zm-29.15,42.91q-7,12.08-13.31,24.57l-18.64-32.94,32,8.37Zm-26,51.33Q355.69,218.11,350,232l-4.15,10.14-5.21-9.64q-2.88-5.31-6-10.51-5.21-8.74-11.05-17-1.75,3.6-3.46,7.21-4.7,10-9.09,20.11.84,1.38,1.67,2.77a295,295,0,0,1,16.41,32.12q-22.36,1.45-44.79,3.07c8.19-21.08,16.77-42,26.41-62.48q2.44-5.18,5-10.32l46,6.95Zm-38.15-22.24c5.51-10.22,11.41-20.25,17.82-29.91l20.18,35.65-38-5.73Zm35.11-53.52a265,265,0,0,1,18.35-20.44L390.52,137l-31.73-8.31Zm41.35-40.51a168.61,168.61,0,0,1,22.3-14.23l3.85,22-26.15-7.79Zm-151,87.29a44,44,0,0,1,15.42,5.39q1.68.95,3.31,2L249.47,203.6l-.34-28.17ZM608.24,66a155.39,155.39,0,0,1,26.12,15.59q2.72,2,5.36,4.06l-30.45,6.85-1-26.5Zm55.84,40q16.64,14.58,32.23,30.25l-37.44,8.85,5.21-39.1Zm33.48,90.18q-8.53-11.7-17.62-23-5.55-6.9-11.28-13.63l38.87-9.19-10,45.84Zm-53.39-63.82q-12.4-13-25.5-25.28l29.77-6.7Z" transform="translate(-22.16 -2.73)"/></g></svg>